PathFileType	4	(X/Y/Z)	Patient4_TMGait_0pt8_01_left_30.trc.trc
DataRate	CameraRate	NumFrames	NumMarkers	Units	OrigDataRate	OrigDataStartFrame	OrigNumFrames
88.050314465409	88.050314465409	6	33	mm	88.050314465409	71	       141
Frame#	Time	Sacral			L.Shoulder			Chest			R.Shoulder			Neck			R.ASIS			L.ASIS			R.Thigh.Superior			R.Thigh.Lateral			R.Thigh.Inferior			R.Patella			L.Thigh.Superior			L.Thigh.Lateral			L.Thigh.Inferior			L.Patella			L.Shank.Superior			L.Shank.Lateral			L.Shank.Inferior			R.Shank.Superior			R.Shank.Lateral			R.Shank.Inferior			R.Heel			R.Midfoot.Superior			R.Midfoot.Lateral			R.Toe			L.Heel			L.Midfoot.Lateral			L.Midfoot.Superior			L.Toe			L.Elbow			L.Wrist			R.Elbow			R.Wrist			
		X1	Y1	Z1	X2	Y2	Z2	X3	Y3	Z3	X4	Y4	Z4	X5	Y5	Z5	X6	Y6	Z6	X7	Y7	Z7	X8	Y8	Z8	X9	Y9	Z9	X10	Y10	Z10	X11	Y11	Z11	X12	Y12	Z12	X13	Y13	Z13	X14	Y14	Z14	X15	Y15	Z15	X16	Y16	Z16	X17	Y17	Z17	X18	Y18	Z18	X19	Y19	Z19	X20	Y20	Z20	X21	Y21	Z21	X22	Y22	Z22	X23	Y23	Z23	X24	Y24	Z24	X25	Y25	Z25	X26	Y26	Z26	X27	Y27	Z27	X28	Y28	Z28	X29	Y29	Z29	X30	Y30	Z30	X31	Y31	Z31	X32	Y32	Z32	X33	Y33	Z33	

71	33.755000000000	822.975645007567	987.492658546190	447.567609702717	1011.796163473351	1415.744244738839	280.346722459504	1095.740892882189	1351.555542518674	454.155242123772	990.336391076703	1424.428519336844	616.208789766969	974.206663387300	1479.036033226701	432.555696118748	1040.017719854579	928.792739628680	586.523976171184	1050.080570364027	950.529402409169	312.137683303224	1121.017533819031	761.243883005938	560.536399890032	1080.377899164168	636.914619336400	633.868075563898	1174.898082338965	605.596843555208	558.458828558235	1212.225456354920	528.004866794545	576.952743917510	1041.623597114990	721.750929410122	338.761934363107	920.858104716967	631.937663197510	271.174754817108	971.943203463556	536.263953819962	340.079442965473	953.242023635549	471.799553771623	348.984326720827	919.400077477743	406.630341573331	340.746377140432	817.079475237051	301.905003927395	290.543845642280	854.889162251574	187.985034069856	366.987775425569	1205.498998283855	438.199828259456	585.483397412082	1161.030771179212	318.266408442609	643.631920373459	1242.736743811430	241.041608941999	595.667537226531	1173.542023424403	44.808945242622	561.641856550177	1325.096011354742	135.272703714092	609.443260090849	1254.472375497272	51.099745296098	638.592354726642	1451.575208227334	112.634564596288	640.707818347550	717.292123415425	38.035309518740	417.309425537583	787.481457520020	34.706230178958	333.326582910539	871.825470506804	95.434238180910	357.462821911101	998.725639824700	45.539671236689	323.918026133414	1121.460149082309	1096.290519940375	140.382010951636	1373.656753001642	1061.764853431912	185.563777742504	837.938991726055	1117.710197371796	724.229721593437	788.468763439333	866.455120995239	767.048435493340	
72	33.766357142857	825.063454153204	985.312804268702	449.331662270838	1012.565328618924	1413.931462247999	282.104420682878	1096.601967058855	1350.054412608698	455.950170829517	990.693961932658	1422.741358428776	617.832474374472	974.838186644361	1477.080172459230	434.234179755553	1042.344343050306	926.579884110065	588.181587195174	1051.986103855619	948.629372036431	313.630784005267	1122.390399565225	757.806846823760	562.629693035193	1079.100719307115	632.853902984351	633.778814918663	1174.512600705409	601.971465466412	559.468656009892	1210.360014794632	524.390889676263	576.392250071149	1042.032379784894	719.450307378400	339.486111225917	919.995956564184	630.742080708784	272.346610799000	970.350672547494	534.421129471116	340.970769492855	950.959584791034	469.692569912263	349.840656582478	915.975903594249	404.984901193117	341.523486397129	811.754064489686	302.092029375283	291.140667926452	847.554983513423	187.250983705900	367.086167299519	1204.410388464806	434.518776413384	584.635527849591	1159.874604392976	314.047267143297	641.260151704430	1242.542550142272	237.670615437550	593.598938568099	1174.318850347244	42.517603725753	558.369985242839	1325.598106994829	132.363841401444	606.642921463298	1254.731510920496	48.804570150823	635.757661535875	1451.861685960766	109.339492852442	638.689085491909	708.164377558514	38.281698446410	416.989989724512	778.485109631077	34.687001746679	333.204949803254	863.016655321404	95.312104768646	357.358371624973	989.844775616351	44.728402580834	323.893037061954	1124.649735066834	1096.168467372312	141.236209005001	1377.248058725031	1070.685388229886	187.167498400332	832.477519627292	1119.920784936206	724.969951381803	779.765158186598	869.278153440625	766.950035793620	
73	33.777714285714	827.270591248600	983.240367992276	451.459331818879	1013.314252431661	1412.181371442993	283.946729889712	1097.546761703053	1348.695470454423	457.804706420680	991.184210127768	1421.180108139819	619.567660943584	975.526750047144	1475.224621025970	436.022134932509	1044.942237378682	924.485427958535	589.896042898070	1053.901884698353	946.853435160719	315.119061877387	1124.360302450408	754.751808444786	564.705737596902	1078.419150874777	629.146883371364	633.534466652233	1174.714877143441	598.761727345714	560.361980298693	1209.002199834775	520.791370697271	575.717597168283	1042.727356972991	717.228485721607	340.311220665651	919.481006386948	629.523190068127	273.783438076387	969.342170794229	532.545176372121	341.984545644901	949.335485376445	467.416851116108	350.823148513717	913.048802780177	403.223212232998	342.451171049999	806.757423708179	302.397904314904	291.920487566001	840.409006048560	186.552411219237	367.215291628916	1203.336618485805	430.722632128073	583.694018529329	1158.062707342822	310.057525140174	638.959959810995	1240.947449418303	233.962903353417	591.484200186517	1171.935948737888	40.895200271749	555.314423194650	1323.831943395490	128.535196252573	603.673557547054	1251.956962930907	46.495115482597	633.068085502920	1449.661526340812	103.853943404389	636.388702347216	699.014000137206	38.721647957382	416.596808867686	769.510450690841	34.718424551096	333.060437565518	854.269528658782	95.232409293961	357.213527002455	981.004938597746	43.895101856856	323.854114197474	1127.418543027549	1095.859727783987	142.341737839419	1380.110979993557	1078.528964714476	188.810662413996	827.794982716360	1121.923390201323	725.702101720865	772.566197520306	871.690874945169	766.807025326505	
74	33.789071428571	829.555105217109	981.345771439442	453.903185542452	1014.085572715117	1410.567535720328	285.863292595627	1098.593701224256	1347.522170036813	459.711742998968	991.836281513822	1419.786625786101	621.413056725395	976.297926035023	1473.542116538743	437.914926950341	1047.756563002364	922.611631820835	591.659036657980	1055.809749860625	945.242432301396	316.628084274465	1126.851222115297	752.142986710612	566.711142936437	1078.375329402735	625.958641018356	633.265320797584	1175.437506046516	596.046144015541	561.140152925249	1208.139611293651	517.362253556078	575.015038721618	1043.677625781588	715.149643376580	341.244462211460	919.305550045909	628.319456735884	275.473590951483	968.936217300706	530.678823697436	343.108067339492	948.411607647893	464.998539903334	351.885085878892	910.623459984720	401.390052063957	343.499940017647	802.108130508966	302.882031498960	292.867335921409	833.476784382647	185.956792817424	367.357599995010	1202.360832538185	427.006540870644	582.772373549163	1155.902298885624	306.439392533976	636.971438846799	1238.316266475726	230.124883955261	589.486773384967	1166.980727006372	39.903647520213	552.685378653104	1320.280703985205	124.044923279083	600.714721724197	1246.785880912922	44.247055885680	630.691082684751	1445.530175360761	96.668070849521	633.883777361001	689.854428591778	39.473543448671	416.133086504936	760.561132955500	34.853523635099	332.892738963374	845.621108571168	95.212127793711	357.008920999287	972.207369157256	43.064531578613	323.799576340335	1129.695726289584	1095.367483876644	143.701572398146	1382.271030631079	1085.233448927999	190.481893422432	824.081017750806	1123.597502803033	726.440467415432	766.875483695698	873.620441779535	766.695447731556	
75	33.800428571429	831.871210537994	979.703172436568	456.605654149956	1014.918705532207	1409.168694245964	287.839862852260	1099.757470448699	1346.580021988571	461.659726277900	992.678715264953	1418.606680300594	623.363128660562	977.177182567102	1472.110968570208	439.903364420602	1050.719970385923	921.062668748626	593.469132164958	1057.688509130903	943.834372245377	318.197255018248	1129.753600422225	750.042389622011	568.597356323014	1078.996629129239	623.445826050323	633.118448460189	1176.590840967149	593.891501019512	561.814865383329	1207.732197156094	514.259475686910	574.388780692067	1044.862271436698	713.289682487015	342.303079122319	919.493820058626	627.166068532338	277.397111801670	969.186291127759	528.872369660022	344.329498567785	948.263226839056	462.476178342256	352.971144144584	908.742056953412	399.536115708552	344.629216018482	797.857334142700	303.614780757114	293.958432461916	826.809163237409	185.543127915322	367.490316706841	1201.536996464290	423.567797058757	581.983319252274	1153.667566077025	303.339358553586	635.510977259841	1234.986968172064	226.388310370168	587.750310606974	1160.089817420912	39.474598916995	550.623980992230	1315.391978106907	119.234237817672	597.954562399993	1239.865635323130	42.159188014356	628.754799694432	1439.978329688440	88.448422607601	631.313537981000	680.718031157031	40.688304806491	415.608733990305	751.647111739964	35.169369938268	332.703857551278	837.126501070620	95.271027560232	356.721677908340	963.450739092622	42.260800805259	323.729530470982	1131.411499438058	1094.698833652710	145.317995161722	1383.748334558174	1090.748925986417	192.166841392664	821.504068248176	1124.840664039432	727.217272261115	762.725830263625	875.013356730194	766.687180071489	
76	33.811785714286	834.172959648434	978.387221889151	459.504935703788	1015.843839525299	1408.064992619608	289.860385877276	1101.045681362970	1345.915037501153	463.633759086943	993.735448023540	1417.689483749799	625.407717890614	978.184607688832	1471.009446419061	441.974182727095	1053.756472961425	919.935316307728	595.332695306413	1059.512382129486	942.669008559241	319.868912797488	1132.932518689099	748.507238528810	570.327378894083	1080.281203765624	621.734396076962	633.231443549283	1178.067115476393	592.343913770503	562.407095326625	1207.709352301161	511.618814193766	573.945200255612	1046.277265234160	711.730399388391	343.513630256534	920.109043181937	626.089616068821	279.526547190585	970.187244738497	527.178497433772	345.637679587492	949.000437005117	459.896766338941	354.021798388643	907.491247322067	397.712500958448	345.789340189946	794.095088615615	304.673620633825	295.166356406788	820.487624190496	185.398421788440	367.586870963026	1200.875527349442	420.576658839293	581.419580061015	1151.554674382487	300.880103515698	634.735062232825	1231.224335364054	222.969817958537	586.375307497997	1151.872013003204	39.505043739587	549.188289161939	1309.530893928225	114.472110316716	595.560474920751	1231.779053585045	40.329633697034	627.332460582208	1433.423292791413	79.939283093940	628.854514839280	671.662050196492	42.547008634320	415.039553424994	742.788638477247	35.770357854554	332.498535954050	828.858961297907	95.432573062134	356.328346423552	954.729392783283	41.504201569737	323.646792856732	1132.499469619242	1093.869110157184	147.193332033095	1384.557219761228	1095.035717590645	193.849660769337	820.200426660190	1125.579861514093	728.078073846509	760.174106803082	875.835280873456	766.846135043926	
